<svg xmlns="http://www.w3.org/2000/svg" fill-rule="evenodd" stroke-linejoin="round" stroke-miterlimit="1.414" clip-rule="evenodd" viewBox="0 0 32 32"><rect width="32" height="32" fill="none"/><path fill-rule="nonzero" d="M25.588,21.009c-1.181,0.002 -2.266,0.004 -3.624,-0.002c-1.939,-0.015 -3.818,-1.254 -4.579,-3.06c-0.278,-0.661 -0.38,-1.374 -0.394,-2.099c-0.056,-2.394 -1.4,-4.682 -3.462,-5.891c-1.06,-0.621 -2.278,-0.955 -3.519,-0.961l-0.021,0l-6.008,0c-0.08,0.01 -0.16,0.02 -0.24,0.029c-0.075,0.029 -0.154,0.049 -0.225,0.086c-0.636,0.334 -0.706,1.402 0,1.772c0.192,0.101 0.254,0.09 0.465,0.115c2.013,0 4.025,-0.009 6.038,0c1.938,0.015 3.816,1.248 4.579,3.06c0.278,0.661 0.38,1.374 0.394,2.099c0.053,2.253 1.246,4.419 3.099,5.663c1.139,0.765 2.503,1.182 3.882,1.189l0.021,0l3.592,0l-2.295,2.295l-0.039,0.041c-0.032,0.038 -0.041,0.047 -0.07,0.087c-0.332,0.468 -0.152,1.224 0.382,1.481c0.371,0.179 0.84,0.092 1.142,-0.194l4.004,-4.003c0.125,-0.133 0.149,-0.181 0.194,-0.274c0.162,-0.336 0.117,-0.762 -0.119,-1.058c-0.031,-0.039 -0.041,-0.048 -0.075,-0.084l-4.004,-4.003c-0.205,-0.195 -0.471,-0.3 -0.763,-0.292c-0.495,0.042 -0.917,0.462 -0.944,0.943c-0.013,0.244 0.066,0.49 0.217,0.68c0.031,0.039 0.041,0.048 0.075,0.084l2.297,2.297Zm-11.222,-2.594c-0.137,0.255 -0.297,0.497 -0.479,0.724c-0.934,1.161 -2.395,1.866 -3.9,1.868l-6.006,0c-0.08,0.01 -0.162,0.01 -0.24,0.029c-0.685,0.169 -1.038,1.177 -0.424,1.721c0.121,0.108 0.267,0.184 0.424,0.223c0.078,0.019 0.16,0.019 0.24,0.029c2.009,0 4.019,0.003 6.029,0c2.052,-0.01 4.057,-0.967 5.364,-2.528c-0.43,-0.638 -0.772,-1.335 -1.008,-2.066Zm11.22,-7.417l-2.295,2.295c0,0 -0.084,0.087 -0.14,0.175c-0.307,0.489 -0.09,1.228 0.465,1.458c0.328,0.135 0.728,0.08 1.007,-0.143c0.039,-0.031 0.047,-0.04 0.083,-0.074l4.004,-4.004c0.125,-0.133 0.149,-0.181 0.194,-0.273c0.162,-0.337 0.117,-0.763 -0.119,-1.059c-0.031,-0.039 -0.041,-0.047 -0.075,-0.084l-4.004,-4.003c-0.205,-0.195 -0.471,-0.3 -0.763,-0.292c-0.62,0.053 -1.102,0.721 -0.889,1.33c0.037,0.106 0.092,0.206 0.162,0.294c0.031,0.039 0.041,0.047 0.075,0.083l2.294,2.295c-1.176,-0.001 -2.258,-0.002 -3.612,0c-2.05,0.01 -4.057,0.965 -5.365,2.529c0.437,0.645 0.782,1.352 1.018,2.094c0.436,-0.81 1.083,-1.504 1.893,-1.965c0.751,-0.428 1.612,-0.655 2.477,-0.656l3.59,0Z"/></svg>